<?xml version="1.0" ?><svg id="Layer_1" style="enable-background:new 0 0 66 66;" version="1.1" viewBox="0 0 66 66" xml:space="preserve" xmlns="http://www.w3.org/2000/svg" xmlns:xlink="http://www.w3.org/1999/xlink"><g><path d="M57.5,1.5h-49c-2.8,0-5,2.2-5,5v23.9c0,2.8,2.2,5,5,5h49c2.8,0,5-2.2,5-5V6.5C62.5,3.8,60.2,1.5,57.5,1.5z M60.5,30.4   c0,1.6-1.4,3-3,3h-49c-1.7,0-3-1.4-3-3V6.5c0-1.7,1.3-3,3-3h49c1.6,0,3,1.3,3,3V30.4z"/><path d="M55.8,18.9c-0.9,0-1.5-0.5-1.5-0.8c0-0.3,0.6-0.8,1.5-0.8c0.3,0,0.6-0.1,0.8-0.4c0.2-0.2,0.3-0.5,0.2-0.8   c-0.3-1.5-0.8-2.9-1.7-4.1c-0.2-0.2-0.4-0.4-0.7-0.4c-0.3,0-0.6,0.1-0.8,0.3c-0.7,0.7-1.5,0.8-1.7,0.5c-0.2-0.2-0.2-1,0.5-1.7   c0.2-0.2,0.3-0.5,0.3-0.8c0-0.3-0.2-0.6-0.4-0.7c-1.2-0.9-2.6-1.4-4.1-1.7c-0.3-0.1-0.6,0-0.8,0.2c-0.2,0.2-0.4,0.5-0.4,0.8   c0,0.9-0.5,1.6-0.8,1.6c-0.3,0-0.8-0.6-0.8-1.6c0-0.3-0.2-0.6-0.4-0.8c-0.2-0.2-0.5-0.3-0.8-0.2c-1.5,0.3-2.9,0.8-4.1,1.7   c-0.2,0.2-0.4,0.4-0.4,0.7c0,0.3,0.1,0.6,0.3,0.8c0.7,0.7,0.7,1.5,0.5,1.7c-0.2,0.2-1,0.1-1.7-0.5c-0.2-0.2-0.5-0.3-0.8-0.3   c-0.3,0-0.5,0.2-0.7,0.4c-0.9,1.2-1.4,2.6-1.7,4.1c0,0.3,0,0.6,0.2,0.8c0.2,0.2,0.4,0.4,0.7,0.4c0.9,0,1.5,0.5,1.5,0.8   c0,0.3-0.6,0.8-1.5,0.8c-0.3,0-0.6,0.2-0.7,0.4c-0.2,0.2-0.3,0.5-0.2,0.8c0.3,1.5,0.8,2.8,1.7,4.1c0.2,0.2,0.4,0.4,0.7,0.4   c0.3,0,0.6-0.1,0.8-0.3c0.7-0.6,1.5-0.7,1.7-0.5c0.2,0.2,0.1,1-0.5,1.7c-0.2,0.2-0.3,0.5-0.2,0.8c0,0.3,0.2,0.5,0.4,0.7   c1.2,0.9,2.6,1.4,4.1,1.7c0.3,0,0.6,0,0.8-0.2s0.4-0.5,0.4-0.7c0-1,0.5-1.5,0.8-1.5c0.3,0,0.8,0.6,0.8,1.5c0,0.3,0.1,0.6,0.4,0.7   c0.2,0.1,0.4,0.2,0.6,0.2c0.1,0,0.1,0,0.2,0c1.5-0.3,2.8-0.9,4.1-1.7c0.2-0.2,0.4-0.4,0.4-0.7c0-0.3-0.1-0.6-0.3-0.8   c-0.6-0.7-0.7-1.5-0.5-1.7c0.2-0.2,1-0.1,1.7,0.5c0.2,0.2,0.5,0.3,0.8,0.3c0.3,0,0.6-0.2,0.7-0.4c0.9-1.2,1.4-2.6,1.7-4.1   c0.1-0.3,0-0.6-0.2-0.8C56.4,19,56.1,18.9,55.8,18.9z M53.9,22.2c-1.3-0.7-2.7-0.6-3.5,0.2c-0.9,0.9-0.9,2.2-0.3,3.5   c-0.5,0.2-1,0.5-1.5,0.6c-0.4-1.4-1.4-2.3-2.6-2.3c-1.2,0-2.2,0.9-2.6,2.3c-0.5-0.1-1-0.4-1.5-0.6c0.7-1.2,0.6-2.6-0.3-3.5   c-0.8-0.9-2.2-0.9-3.5-0.3c-0.2-0.5-0.5-1-0.6-1.5c1.4-0.4,2.3-1.4,2.3-2.6c0-1.2-0.9-2.2-2.3-2.6c0.2-0.5,0.4-1,0.6-1.5   c1.3,0.7,2.6,0.6,3.5-0.2c0.9-0.9,0.9-2.2,0.2-3.5c0.5-0.2,1-0.5,1.5-0.6c0.4,1.4,1.4,2.3,2.6,2.3c1.2,0,2.2-0.9,2.6-2.3   c0.5,0.2,1,0.4,1.5,0.6c-0.7,1.3-0.6,2.6,0.2,3.5c0.8,0.9,2.2,0.9,3.5,0.2c0.2,0.5,0.4,1,0.6,1.5c-1.4,0.4-2.3,1.4-2.3,2.6   c0,1.2,0.9,2.2,2.3,2.6C54.4,21.2,54.2,21.7,53.9,22.2z"/><path d="M50.4,18c0,2.4-1.9,4.3-4.3,4.3c-2.4,0-4.3-1.9-4.3-4.3s1.9-4.3,4.3-4.3C48.5,13.7,50.4,15.7,50.4,18z"/><path d="M9.7,26.8c0.5,0.2,1.1,0,1.3-0.5l2.6-6l3.4,8.7c0.1,0.3,0.4,0.6,0.8,0.6c0.1,0,0.1,0,0.2,0c0.3,0,0.6-0.1,0.8-0.3   l12.1-13.8l0,2.8c0,0.6,0.4,1,1,1c0,0,0,0,0,0c0.6,0,1-0.5,1-1l0-5.5c0-0.3-0.1-0.5-0.3-0.7c-0.2-0.2-0.5-0.3-0.7-0.3l-5.5,0   c-0.6,0-1,0.5-1,1c0,0.6,0.5,1,1,1l3.2,0L18.3,26.7l-3.6-9.4c-0.1-0.4-0.5-0.6-0.9-0.6c-0.4,0-0.8,0.2-0.9,0.6l-3.6,8.3   C9,26,9.2,26.6,9.7,26.8z"/><path d="M18.5,43.3c0,3-2.4,5.4-5.4,5.4s-5.4-2.4-5.4-5.4s2.4-5.4,5.4-5.4S18.5,40.3,18.5,43.3z"/><circle cx="33" cy="43.3" r="5.4"/><path d="M58.4,43.3c0,3-2.4,5.4-5.4,5.4s-5.4-2.4-5.4-5.4s2.4-5.4,5.4-5.4S58.4,40.3,58.4,43.3z"/><path d="M65,63.2l-2.4-9.1c-0.6-2.2-2.5-3.7-4.8-3.7h-9.6c-2.2,0-4.2,1.5-4.8,3.7L43,55.4l-0.4-1.3c-0.6-2.2-2.5-3.7-4.8-3.7h-9.6   c-2.2,0-4.2,1.5-4.8,3.7L23,55.5l-0.4-1.4c-0.6-2.2-2.5-3.7-4.8-3.7H8.2c-2.2,0-4.2,1.5-4.8,3.7L1,63.2c-0.1,0.5,0.2,1.1,0.7,1.2   c0.5,0.1,1.1-0.2,1.2-0.7l2.4-9.1c0.3-1.3,1.5-2.2,2.8-2.2h9.6c1.3,0,2.5,0.9,2.8,2.2l2.4,9.1c0.1,0.4,0.5,0.7,1,0.7   c0.1,0,0.2,0,0.3,0c0.5-0.1,0.9-0.7,0.7-1.2l-1.1-4l1.4-4.6c0.3-1.3,1.5-2.2,2.8-2.2h9.6c1.3,0,2.5,0.9,2.9,2.2l1.4,4.4L41,63.2   c-0.1,0.5,0.2,1.1,0.7,1.2c0.5,0.1,1.1-0.2,1.2-0.7l2.4-9.1c0.3-1.3,1.5-2.2,2.8-2.2h9.6c1.3,0,2.5,0.9,2.8,2.2l2.4,9.1   c0.1,0.4,0.5,0.7,1,0.7c0.1,0,0.2,0,0.3,0C64.8,64.3,65.1,63.8,65,63.2z"/></g></svg>